<mxfile host="Electron" agent="Mozilla/5.0 (Windows NT 10.0; Win64; x64) AppleWebKit/537.36 (KHTML, like Gecko) draw.io/24.7.17 Chrome/128.0.6613.36 Electron/32.0.1 Safari/537.36" version="24.7.17">
  <diagram name="Page-1" id="LGnNCITCvTkWT3mhRnGz">
    <mxGraphModel dx="1295" dy="768" grid="1" gridSize="10" guides="1" tooltips="1" connect="1" arrows="1" fold="1" page="1" pageScale="1" pageWidth="850" pageHeight="1100" math="0" shadow="0">
      <root>
        <mxCell id="0" />
        <mxCell id="1" parent="0" />
        <mxCell id="Bm32yvJICTkkYaldu2Yt-1" value="crm_cust_info" style="swimlane;fontStyle=0;childLayout=stackLayout;horizontal=1;startSize=30;horizontalStack=0;resizeParent=1;resizeParentMax=0;resizeLast=0;collapsible=1;marginBottom=0;whiteSpace=wrap;html=1;rounded=1;fillColor=#dae8fc;strokeColor=#6c8ebf;fontSize=22;" parent="1" vertex="1">
          <mxGeometry x="450" y="380" width="170" height="90" as="geometry" />
        </mxCell>
        <mxCell id="Bm32yvJICTkkYaldu2Yt-2" value="cst_id" style="text;strokeColor=none;fillColor=none;align=left;verticalAlign=middle;spacingLeft=4;spacingRight=4;overflow=hidden;points=[[0,0.5],[1,0.5]];portConstraint=eastwest;rotatable=0;whiteSpace=wrap;html=1;fontSize=22;" parent="Bm32yvJICTkkYaldu2Yt-1" vertex="1">
          <mxGeometry y="30" width="170" height="30" as="geometry" />
        </mxCell>
        <mxCell id="Bm32yvJICTkkYaldu2Yt-22" value="cst_key" style="text;strokeColor=none;fillColor=none;align=left;verticalAlign=middle;spacingLeft=4;spacingRight=4;overflow=hidden;points=[[0,0.5],[1,0.5]];portConstraint=eastwest;rotatable=0;whiteSpace=wrap;html=1;fontSize=22;" parent="Bm32yvJICTkkYaldu2Yt-1" vertex="1">
          <mxGeometry y="60" width="170" height="30" as="geometry" />
        </mxCell>
        <mxCell id="Bm32yvJICTkkYaldu2Yt-5" value="Customer information" style="text;html=1;align=center;verticalAlign=middle;whiteSpace=wrap;rounded=0;" parent="1" vertex="1">
          <mxGeometry x="470" y="340" width="130" height="30" as="geometry" />
        </mxCell>
        <mxCell id="Bm32yvJICTkkYaldu2Yt-6" value="&lt;font style=&quot;font-size: 20px;&quot;&gt;&lt;b&gt;INTGRATION MODEL&lt;/b&gt; (how table related)&lt;/font&gt;" style="text;html=1;align=center;verticalAlign=middle;whiteSpace=wrap;rounded=0;" parent="1" vertex="1">
          <mxGeometry x="20" y="20" width="400" height="30" as="geometry" />
        </mxCell>
        <mxCell id="Bm32yvJICTkkYaldu2Yt-7" value="crm_prd_info" style="swimlane;fontStyle=0;childLayout=stackLayout;horizontal=1;startSize=30;horizontalStack=0;resizeParent=1;resizeParentMax=0;resizeLast=0;collapsible=1;marginBottom=0;whiteSpace=wrap;html=1;rounded=1;fillColor=#dae8fc;strokeColor=#6c8ebf;fontSize=22;" parent="1" vertex="1">
          <mxGeometry x="450" y="160" width="170" height="60" as="geometry" />
        </mxCell>
        <mxCell id="Bm32yvJICTkkYaldu2Yt-8" value="cat_id" style="text;strokeColor=none;fillColor=none;align=left;verticalAlign=middle;spacingLeft=4;spacingRight=4;overflow=hidden;points=[[0,0.5],[1,0.5]];portConstraint=eastwest;rotatable=0;whiteSpace=wrap;html=1;fontSize=22;" parent="Bm32yvJICTkkYaldu2Yt-7" vertex="1">
          <mxGeometry y="30" width="170" height="30" as="geometry" />
        </mxCell>
        <mxCell id="Bm32yvJICTkkYaldu2Yt-9" value="current &amp;amp; history product information" style="text;html=1;align=center;verticalAlign=middle;whiteSpace=wrap;rounded=0;" parent="1" vertex="1">
          <mxGeometry x="437.5" y="130" width="195" height="30" as="geometry" />
        </mxCell>
        <mxCell id="Bm32yvJICTkkYaldu2Yt-10" value="crm_sales_details" style="swimlane;fontStyle=0;childLayout=stackLayout;horizontal=1;startSize=30;horizontalStack=0;resizeParent=1;resizeParentMax=0;resizeLast=0;collapsible=1;marginBottom=0;whiteSpace=wrap;html=1;rounded=1;fillColor=#dae8fc;strokeColor=#6c8ebf;fontSize=22;" parent="1" vertex="1">
          <mxGeometry x="82.5" y="250" width="187.5" height="90" as="geometry" />
        </mxCell>
        <mxCell id="Bm32yvJICTkkYaldu2Yt-11" value="prd_key" style="text;strokeColor=none;fillColor=none;align=left;verticalAlign=middle;spacingLeft=4;spacingRight=4;overflow=hidden;points=[[0,0.5],[1,0.5]];portConstraint=eastwest;rotatable=0;whiteSpace=wrap;html=1;fontSize=22;" parent="Bm32yvJICTkkYaldu2Yt-10" vertex="1">
          <mxGeometry y="30" width="187.5" height="30" as="geometry" />
        </mxCell>
        <mxCell id="Bm32yvJICTkkYaldu2Yt-16" value="cst_id" style="text;strokeColor=none;fillColor=none;align=left;verticalAlign=middle;spacingLeft=4;spacingRight=4;overflow=hidden;points=[[0,0.5],[1,0.5]];portConstraint=eastwest;rotatable=0;whiteSpace=wrap;html=1;fontSize=22;" parent="Bm32yvJICTkkYaldu2Yt-10" vertex="1">
          <mxGeometry y="60" width="187.5" height="30" as="geometry" />
        </mxCell>
        <mxCell id="Bm32yvJICTkkYaldu2Yt-12" value="transactional record about sales &amp;amp;product" style="text;html=1;align=center;verticalAlign=middle;whiteSpace=wrap;rounded=0;" parent="1" vertex="1">
          <mxGeometry x="100" y="210" width="150" height="30" as="geometry" />
        </mxCell>
        <mxCell id="Bm32yvJICTkkYaldu2Yt-17" style="edgeStyle=orthogonalEdgeStyle;rounded=0;orthogonalLoop=1;jettySize=auto;html=1;entryX=0.027;entryY=0.129;entryDx=0;entryDy=0;entryPerimeter=0;" parent="1" source="Bm32yvJICTkkYaldu2Yt-11" target="Bm32yvJICTkkYaldu2Yt-8" edge="1">
          <mxGeometry relative="1" as="geometry" />
        </mxCell>
        <mxCell id="Bm32yvJICTkkYaldu2Yt-18" style="edgeStyle=orthogonalEdgeStyle;rounded=0;orthogonalLoop=1;jettySize=auto;html=1;entryX=0;entryY=0.5;entryDx=0;entryDy=0;" parent="1" source="Bm32yvJICTkkYaldu2Yt-16" target="Bm32yvJICTkkYaldu2Yt-2" edge="1">
          <mxGeometry relative="1" as="geometry" />
        </mxCell>
        <mxCell id="Bm32yvJICTkkYaldu2Yt-19" value="erp_cust_az12" style="swimlane;fontStyle=0;childLayout=stackLayout;horizontal=1;startSize=30;horizontalStack=0;resizeParent=1;resizeParentMax=0;resizeLast=0;collapsible=1;marginBottom=0;whiteSpace=wrap;html=1;rounded=1;fillColor=#fff2cc;strokeColor=#d6b656;fontSize=22;" parent="1" vertex="1">
          <mxGeometry x="1000" y="320" width="170" height="60" as="geometry" />
        </mxCell>
        <mxCell id="Bm32yvJICTkkYaldu2Yt-20" value="cid" style="text;strokeColor=none;fillColor=none;align=left;verticalAlign=middle;spacingLeft=4;spacingRight=4;overflow=hidden;points=[[0,0.5],[1,0.5]];portConstraint=eastwest;rotatable=0;whiteSpace=wrap;html=1;fontSize=22;" parent="Bm32yvJICTkkYaldu2Yt-19" vertex="1">
          <mxGeometry y="30" width="170" height="30" as="geometry" />
        </mxCell>
        <mxCell id="Bm32yvJICTkkYaldu2Yt-21" value="Extra Customer information" style="text;html=1;align=center;verticalAlign=middle;whiteSpace=wrap;rounded=0;" parent="1" vertex="1">
          <mxGeometry x="1020" y="280" width="130" height="30" as="geometry" />
        </mxCell>
        <mxCell id="Bm32yvJICTkkYaldu2Yt-23" style="edgeStyle=orthogonalEdgeStyle;rounded=0;orthogonalLoop=1;jettySize=auto;html=1;entryX=1;entryY=0.5;entryDx=0;entryDy=0;" parent="1" source="Bm32yvJICTkkYaldu2Yt-20" target="Bm32yvJICTkkYaldu2Yt-22" edge="1">
          <mxGeometry relative="1" as="geometry" />
        </mxCell>
        <mxCell id="Bm32yvJICTkkYaldu2Yt-24" value="erp_loc_a101" style="swimlane;fontStyle=0;childLayout=stackLayout;horizontal=1;startSize=30;horizontalStack=0;resizeParent=1;resizeParentMax=0;resizeLast=0;collapsible=1;marginBottom=0;whiteSpace=wrap;html=1;rounded=1;fillColor=#fff2cc;strokeColor=#d6b656;fontSize=22;" parent="1" vertex="1">
          <mxGeometry x="1010" y="450" width="170" height="60" as="geometry" />
        </mxCell>
        <mxCell id="Bm32yvJICTkkYaldu2Yt-25" value="cid" style="text;strokeColor=none;fillColor=none;align=left;verticalAlign=middle;spacingLeft=4;spacingRight=4;overflow=hidden;points=[[0,0.5],[1,0.5]];portConstraint=eastwest;rotatable=0;whiteSpace=wrap;html=1;fontSize=22;" parent="Bm32yvJICTkkYaldu2Yt-24" vertex="1">
          <mxGeometry y="30" width="170" height="30" as="geometry" />
        </mxCell>
        <mxCell id="Bm32yvJICTkkYaldu2Yt-26" value="Customer location" style="text;html=1;align=center;verticalAlign=middle;whiteSpace=wrap;rounded=0;" parent="1" vertex="1">
          <mxGeometry x="1030" y="410" width="130" height="30" as="geometry" />
        </mxCell>
        <mxCell id="Bm32yvJICTkkYaldu2Yt-27" style="edgeStyle=orthogonalEdgeStyle;rounded=0;orthogonalLoop=1;jettySize=auto;html=1;entryX=1;entryY=0.5;entryDx=0;entryDy=0;" parent="1" source="Bm32yvJICTkkYaldu2Yt-25" target="Bm32yvJICTkkYaldu2Yt-22" edge="1">
          <mxGeometry relative="1" as="geometry" />
        </mxCell>
        <mxCell id="Bm32yvJICTkkYaldu2Yt-28" value="erp_px_cat_g1v2" style="swimlane;fontStyle=0;childLayout=stackLayout;horizontal=1;startSize=30;horizontalStack=0;resizeParent=1;resizeParentMax=0;resizeLast=0;collapsible=1;marginBottom=0;whiteSpace=wrap;html=1;rounded=1;fillColor=#fff2cc;strokeColor=#d6b656;fontSize=22;" parent="1" vertex="1">
          <mxGeometry x="1000" y="140" width="180" height="60" as="geometry" />
        </mxCell>
        <mxCell id="Bm32yvJICTkkYaldu2Yt-29" value="id" style="text;strokeColor=none;fillColor=none;align=left;verticalAlign=middle;spacingLeft=4;spacingRight=4;overflow=hidden;points=[[0,0.5],[1,0.5]];portConstraint=eastwest;rotatable=0;whiteSpace=wrap;html=1;fontSize=22;" parent="Bm32yvJICTkkYaldu2Yt-28" vertex="1">
          <mxGeometry y="30" width="180" height="30" as="geometry" />
        </mxCell>
        <mxCell id="Bm32yvJICTkkYaldu2Yt-30" value="product catgories" style="text;html=1;align=center;verticalAlign=middle;whiteSpace=wrap;rounded=0;" parent="1" vertex="1">
          <mxGeometry x="1020" y="110" width="130" height="30" as="geometry" />
        </mxCell>
        <mxCell id="Bm32yvJICTkkYaldu2Yt-31" style="edgeStyle=orthogonalEdgeStyle;rounded=0;orthogonalLoop=1;jettySize=auto;html=1;" parent="1" source="Bm32yvJICTkkYaldu2Yt-29" target="Bm32yvJICTkkYaldu2Yt-8" edge="1">
          <mxGeometry relative="1" as="geometry" />
        </mxCell>
        <mxCell id="Bm32yvJICTkkYaldu2Yt-32" value="" style="rounded=1;whiteSpace=wrap;html=1;arcSize=16;fillColor=none;dashed=1;strokeColor=#6c8ebf;" parent="1" vertex="1">
          <mxGeometry x="70" y="100" width="573.75" height="430" as="geometry" />
        </mxCell>
        <mxCell id="Bm32yvJICTkkYaldu2Yt-35" value="&lt;b&gt;&lt;font style=&quot;font-size: 30px;&quot;&gt;CRM&lt;/font&gt;&lt;/b&gt;" style="rounded=1;whiteSpace=wrap;html=1;fillColor=#dae8fc;strokeColor=#6c8ebf;" parent="1" vertex="1">
          <mxGeometry x="290" y="70" width="160" height="60" as="geometry" />
        </mxCell>
        <mxCell id="Bm32yvJICTkkYaldu2Yt-37" value="" style="rounded=1;whiteSpace=wrap;html=1;arcSize=16;fillColor=none;dashed=1;strokeColor=#6c8ebf;" parent="1" vertex="1">
          <mxGeometry x="770" y="100" width="470" height="430" as="geometry" />
        </mxCell>
        <mxCell id="Bm32yvJICTkkYaldu2Yt-38" value="&lt;font style=&quot;font-size: 30px;&quot;&gt;&lt;b&gt;EEP&lt;/b&gt;&lt;/font&gt;" style="rounded=1;whiteSpace=wrap;html=1;fillColor=#fff2cc;strokeColor=#d6b656;" parent="1" vertex="1">
          <mxGeometry x="920" y="50" width="170" height="60" as="geometry" />
        </mxCell>
        <mxCell id="5WossMnuJRm3K5yKy_qR-8" value="&lt;font style=&quot;font-size: 20px;&quot;&gt;prouduct&lt;/font&gt;" style="text;html=1;strokeColor=#b85450;fillColor=#f8cecc;align=center;verticalAlign=middle;whiteSpace=wrap;overflow=hidden;" vertex="1" parent="1">
          <mxGeometry x="490" y="220" width="90" height="30" as="geometry" />
        </mxCell>
        <mxCell id="5WossMnuJRm3K5yKy_qR-10" value="&lt;font style=&quot;font-size: 20px;&quot;&gt;prouduct&lt;/font&gt;" style="text;html=1;strokeColor=#b85450;fillColor=#f8cecc;align=center;verticalAlign=middle;whiteSpace=wrap;overflow=hidden;" vertex="1" parent="1">
          <mxGeometry x="1045" y="200" width="90" height="30" as="geometry" />
        </mxCell>
        <mxCell id="5WossMnuJRm3K5yKy_qR-11" value="&lt;span style=&quot;font-size: 20px;&quot;&gt;customer&lt;/span&gt;" style="text;html=1;strokeColor=#82b366;fillColor=#d5e8d4;align=center;verticalAlign=middle;whiteSpace=wrap;overflow=hidden;" vertex="1" parent="1">
          <mxGeometry x="490" y="470" width="90" height="30" as="geometry" />
        </mxCell>
        <mxCell id="5WossMnuJRm3K5yKy_qR-12" value="&lt;span style=&quot;font-size: 20px;&quot;&gt;customer&lt;/span&gt;" style="text;html=1;strokeColor=#82b366;fillColor=#d5e8d4;align=center;verticalAlign=middle;whiteSpace=wrap;overflow=hidden;" vertex="1" parent="1">
          <mxGeometry x="1050" y="510" width="90" height="30" as="geometry" />
        </mxCell>
        <mxCell id="5WossMnuJRm3K5yKy_qR-13" value="&lt;span style=&quot;font-size: 20px;&quot;&gt;customer&lt;/span&gt;" style="text;html=1;strokeColor=#82b366;fillColor=#d5e8d4;align=center;verticalAlign=middle;whiteSpace=wrap;overflow=hidden;" vertex="1" parent="1">
          <mxGeometry x="1050" y="380" width="90" height="30" as="geometry" />
        </mxCell>
        <mxCell id="5WossMnuJRm3K5yKy_qR-14" value="&lt;span style=&quot;font-size: 20px;&quot;&gt;sales&lt;/span&gt;" style="text;html=1;strokeColor=#9673a6;fillColor=#e1d5e7;align=center;verticalAlign=middle;whiteSpace=wrap;overflow=hidden;" vertex="1" parent="1">
          <mxGeometry x="130" y="340" width="90" height="30" as="geometry" />
        </mxCell>
      </root>
    </mxGraphModel>
  </diagram>
</mxfile>
